<?xml version="1.0" encoding="utf-8"?>
<!-- Generator: Adobe Illustrator 26.3.1, SVG Export Plug-In . SVG Version: 6.00 Build 0)  -->
<svg version="1.1" id="Calque_1" xmlns="http://www.w3.org/2000/svg" xmlns:xlink="http://www.w3.org/1999/xlink" x="0px" y="0px"
	 viewBox="0 0 192 115" style="enable-background:new 0 0 192 115;" xml:space="preserve">
<style type="text/css">
	.st0{fill:#333333;}
	.st1{font-family:'Quenda-Medium';}
	.st2{font-size:31.5716px;}
	.st3{font-family:'SoftLine';}
	.st4{font-size:21.4528px;}
</style>
<text transform="matrix(1 0 0 1 45.6909 54.8594)" class="st0 st1 st2">ELSE</text>
<text transform="matrix(1 0 0 1 46.4517 82.668)" class="st0 st3 st4">CONSULTORIA</text>
<path class="st0" d="M5.97,34.96c1.28,0,2.3,1.03,2.3,2.3v42.97c0,1.28-1.03,2.3-2.3,2.3c-1.27,0-2.3-1.03-2.3-2.3V37.26
	C3.67,35.98,4.69,34.96,5.97,34.96z"/>
<path class="st0" d="M33.25,80.42c0,1.28-1.03,2.3-2.3,2.3H6.16c-1.28,0-2.3-1.03-2.3-2.3c0-1.27,1.03-2.3,2.3-2.3h24.79
	C32.22,78.12,33.25,79.14,33.25,80.42z"/>
<path class="st0" d="M33.01,73.86c0,0.96-0.77,1.73-1.73,1.73H12.67c-0.96,0-1.73-0.77-1.73-1.73c0-0.96,0.77-1.73,1.73-1.73h18.61
	C32.24,72.13,33.01,72.9,33.01,73.86z"/>
<path class="st0" d="M33.01,54.96c0,0.96-0.77,1.73-1.73,1.73H12.67c-0.96,0-1.73-0.77-1.73-1.73c0-0.96,0.77-1.73,1.73-1.73h18.61
	C32.24,53.23,33.01,54,33.01,54.96z"/>
<path class="st0" d="M12.53,75.44c-0.96,0-1.73-0.77-1.73-1.73V55.1c0-0.96,0.77-1.73,1.73-1.73c0.96,0,1.73,0.77,1.73,1.73v18.61
	C14.25,74.67,13.48,75.44,12.53,75.44z"/>
</svg>
