<?xml version="1.0" encoding="UTF-8" standalone="no"?>
<!-- Created with Inkscape (http://www.inkscape.org/) -->

<svg
   xmlns:dc="http://purl.org/dc/elements/1.1/"
   xmlns:cc="http://creativecommons.org/ns#"
   xmlns:rdf="http://www.w3.org/1999/02/22-rdf-syntax-ns#"
   xmlns:svg="http://www.w3.org/2000/svg"
   xmlns="http://www.w3.org/2000/svg"
   xmlns:sodipodi="http://sodipodi.sourceforge.net/DTD/sodipodi-0.dtd"
   xmlns:inkscape="http://www.inkscape.org/namespaces/inkscape"
   width="210mm"
   height="70mm"
   viewBox="0 0 210 70"
   version="1.1"
   id="svg1038"
   inkscape:version="0.92.4 5da689c313, 2019-01-14"
   sodipodi:docname="cc_russas.svg">
  <defs
     id="defs1032" />
  <sodipodi:namedview
     id="base"
     pagecolor="#ffffff"
     bordercolor="#666666"
     borderopacity="1.0"
     inkscape:pageopacity="0.0"
     inkscape:pageshadow="2"
     inkscape:zoom="0.49497475"
     inkscape:cx="325.93153"
     inkscape:cy="293.36783"
     inkscape:document-units="mm"
     inkscape:current-layer="layer1"
     showgrid="false"
     showguides="true"
     inkscape:guide-bbox="true"
     inkscape:window-width="1366"
     inkscape:window-height="697"
     inkscape:window-x="0"
     inkscape:window-y="0"
     inkscape:window-maximized="1">
    <sodipodi:guide
       position="66.33482,265.62278"
       orientation="1,0"
       id="guide1599"
       inkscape:locked="false" />
  </sodipodi:namedview>
  <metadata
     id="metadata1035">
    <rdf:RDF>
      <cc:Work
         rdf:about="">
        <dc:format>image/svg+xml</dc:format>
        <dc:type
           rdf:resource="http://purl.org/dc/dcmitype/StillImage" />
        <dc:title></dc:title>
      </cc:Work>
    </rdf:RDF>
  </metadata>
  <g
     inkscape:label="Camada 1"
     inkscape:groupmode="layer"
     id="layer1"
     transform="translate(0,-227)">
    <g
       transform="matrix(1.4088593,0,0,1.4088593,-237.97608,-102.17554)"
       id="g1587"
       style="display:inline;opacity:1;fill:#000000;fill-opacity:1">
      <g
         id="g1583"
         transform="matrix(1.3498226,0,0,1.3498226,-213.07533,-1117.9653)"
         style="fill:#000000;fill-opacity:1">
        <path
           inkscape:connector-curvature="0"
           id="path1577"
           d="m 379.3125,1015.9375 c -0.71546,0 -0.99461,0.3438 -1.40625,0.3437 -0.13721,0 -0.32913,-0.054 -0.59375,-0.25 l -0.28125,0.8126 c 0.34303,0.3332 0.66918,0.4062 0.875,0.4062 0.52925,0 0.95356,-0.375 1.375,-0.375 0.12741,0 0.34262,0.034 0.65625,0.25 l 0.28125,-0.7812 c -0.37243,-0.3529 -0.72983,-0.4063 -0.90625,-0.4063 z m -57.78125,1.8125 c -2.42082,0 -3.65625,1.6918 -3.65625,3.75 0,2.0582 1.23543,3.7188 3.65625,3.7188 0.96049,0 1.73553,-0.2992 2.5,-0.75 l -0.59375,-1.1563 c -0.58805,0.4116 -1.17118,0.6562 -1.90625,0.6563 -1.45053,0 -2.21875,-1.0967 -2.21875,-2.4688 0,-1.3819 0.76822,-2.5 2.21875,-2.5 0.73507,0 1.3182,0.2446 1.90625,0.6562 l 0.59375,-1.1562 c -0.76447,-0.4508 -1.53951,-0.75 -2.5,-0.75 z m 6.71875,0 c -2.33261,0 -3.59375,1.6232 -3.59375,3.75 0,2.1268 1.26114,3.7188 3.59375,3.7188 2.32281,0 3.625,-1.592 3.625,-3.7188 0,-2.1268 -1.30219,-3.75 -3.625,-3.75 z m 43.8125,0 c -2.42082,0 -3.65625,1.6918 -3.65625,3.75 0,1.8818 1.04352,3.4014 3.0625,3.6562 l -1,1.3126 1,0.625 1.09375,-1.9063 c 0.73507,-0.069 1.37274,-0.3463 2,-0.7187 L 374,1023.3125 c -0.58805,0.4116 -1.20243,0.6562 -1.9375,0.6563 -1.45053,0 -2.21875,-1.0967 -2.21875,-2.4688 0,-1.3819 0.76822,-2.5 2.21875,-2.5 0.73507,0 1.34945,0.2446 1.9375,0.6562 l 0.5625,-1.1562 c -0.76447,-0.4508 -1.53951,-0.75 -2.5,-0.75 z m 14.09375,0 c -2.33261,0 -3.59375,1.6232 -3.59375,3.75 0,2.1268 1.26114,3.7188 3.59375,3.7188 2.32281,0 3.625,-1.592 3.625,-3.7188 0,-2.1268 -1.30219,-3.75 -3.625,-3.75 z m -53.0625,0.062 v 7.3437 h 1.4375 v -4.4374 l 0.0312,-0.031 1.875,2.8125 h 0.5625 l 1.875,-2.8125 0.0312,0.031 v 4.4374 h 1.4375 v -7.3437 h -0.96875 l -2.65625,4.0625 -2.65625,-4.0625 h -0.96875 z m 8.71875,0 v 7.3437 h 1.4375 v -2.3437 h 1.46875 c 1.48973,0 2.71875,-1.1083 2.71875,-2.5 0,-1.4113 -1.22902,-2.5 -2.71875,-2.5 z m 6.78125,0 v 4.1875 c 0,1.8622 1.05517,3.2188 3.09375,3.2188 2.04838,0 3.09375,-1.3566 3.09375,-3.2188 v -4.1875 h -1.4375 v 4.1875 c 0,1.1761 -0.56835,2.0625 -1.65625,2.0625 -1.0781,0 -1.65625,-0.8864 -1.65625,-2.0625 v -4.1875 z m 7.0625,0 v 1.1563 h 2.1875 v 6.1874 h 1.4375 v -6.1874 h 2.1875 v -1.1563 z m 8.375,0 -3.1875,7.3437 1.46875,0.063 0.59375,-1.4376 h 3.15625 l 0.59375,1.4376 1.4375,-0.063 -3.1875,-7.3437 z m 14.15625,0 -3.21875,7.3437 1.46875,0.063 0.625,-1.4376 h 3.125 l 0.625,1.4376 1.4375,-0.063 -3.1875,-7.3437 z m -34.9375,1.1563 h 1.3125 c 0.79387,0 1.4375,0.5694 1.4375,1.3437 0,0.7351 -0.64363,1.3125 -1.4375,1.3125 H 343.25 Z m -15,0.031 c 1.41133,0 2.15625,1.1573 2.15625,2.5 0,1.3427 -0.74492,2.4688 -2.15625,2.4688 -1.42113,0 -2.15625,-1.1261 -2.15625,-2.4688 0,-1.3427 0.73512,-2.5 2.15625,-2.5 z m 57.90625,0 c 1.41133,0 2.15625,1.1573 2.15625,2.5 0,1.3427 -0.74492,2.4688 -2.15625,2.4688 -1.42113,0 -2.15625,-1.1261 -2.15625,-2.4688 0,-1.3427 0.73512,-2.5 2.15625,-2.5 z m -21.71875,0.8438 H 364.5 l 1.125,2.8124 h -2.3125 z m 14.15625,0 h 0.0312 l 1.15625,2.8124 h -2.34375 l 1.15625,-2.8124 z"
           style="font-style:normal;font-variant:normal;font-weight:normal;font-stretch:normal;font-size:23.45301628px;line-height:125%;font-family:SkolaSans;-inkscape-font-specification:SkolaSans;letter-spacing:0px;word-spacing:0px;fill:#000000;fill-opacity:1;stroke:none" />
        <path
           inkscape:connector-curvature="0"
           id="path1579"
           d="m 325.4375,1028 c -0.87621,0 -1.34375,0.6266 -1.34375,1.4062 0,0.7797 0.46754,1.4375 1.34375,1.4376 0.36385,0 0.6479,-0.1105 0.9375,-0.2813 l -0.15625,-0.2813 c -0.24504,0.156 -0.47309,0.25 -0.78125,0.25 -0.64973,0 -1,-0.5161 -1,-1.125 0,-0.6126 0.35027,-1.0937 1,-1.0937 0.30816,0 0.53621,0.094 0.78125,0.25 l 0.15625,-0.2813 C 326.0854,1028.1105 325.80135,1028 325.4375,1028 Z m 5,0 c -0.87621,0 -1.3125,0.6266 -1.3125,1.4062 0,0.7797 0.43629,1.4375 1.3125,1.4376 0.36385,0 0.6479,-0.1105 0.9375,-0.2813 l -0.125,-0.2813 c -0.24504,0.156 -0.50434,0.25 -0.8125,0.25 -0.64973,0 -1,-0.5161 -1,-1.125 0,-0.6126 0.35027,-1.0937 1,-1.0937 0.30816,0 0.56746,0.094 0.8125,0.25 l 0.125,-0.2813 C 331.0854,1028.1105 330.80135,1028 330.4375,1028 Z m 16.875,0 c -0.61632,0 -0.90625,0.3215 -0.90625,0.7188 0,0.9838 1.5,0.6881 1.5,1.375 0,0.2933 -0.21134,0.4374 -0.59375,0.4374 -0.27474,0 -0.56746,-0.075 -0.8125,-0.25 l -0.15625,0.25 c 0.29331,0.2005 0.59221,0.3125 0.9375,0.3126 0.60518,0 0.96875,-0.2875 0.96875,-0.7813 0,-0.9468 -1.5,-0.6458 -1.5,-1.3437 0,-0.2228 0.18751,-0.4063 0.5625,-0.4063 0.27846,0 0.51238,0.083 0.75,0.25 l 0.15625,-0.25 C 347.94401,1028.1231 347.65779,1028 347.3125,1028 Z m 11.34375,0 c -0.61632,0 -0.90625,0.3215 -0.90625,0.7188 0,0.9838 1.5,0.6881 1.5,1.375 0,0.2933 -0.24259,0.4374 -0.625,0.4374 -0.27474,0 -0.56746,-0.075 -0.8125,-0.25 l -0.125,0.25 c 0.29331,0.2005 0.59221,0.3125 0.9375,0.3126 0.60518,0 0.9375,-0.2875 0.9375,-0.7813 0,-0.9468 -1.5,-0.6458 -1.5,-1.3437 0,-0.2228 0.18751,-0.4063 0.5625,-0.4063 0.27846,0 0.54363,0.083 0.78125,0.25 l 0.125,-0.25 c -0.27474,-0.1894 -0.52971,-0.3125 -0.875,-0.3125 z m 2.96875,0 c -0.61632,0 -0.90625,0.3215 -0.90625,0.7188 0,0.9838 1.5,0.6881 1.5,1.375 0,0.2933 -0.21134,0.4374 -0.59375,0.4374 -0.27474,0 -0.56746,-0.075 -0.8125,-0.25 l -0.15625,0.25 c 0.29331,0.2005 0.59221,0.3125 0.9375,0.3126 0.60518,0 0.96875,-0.2875 0.96875,-0.7813 0,-0.9468 -1.5,-0.6458 -1.5,-1.3437 0,-0.2228 0.18751,-0.4063 0.5625,-0.4063 0.27846,0 0.51238,0.083 0.75,0.25 l 0.125,-0.25 C 362.22526,1028.1231 361.97029,1028 361.625,1028 Z m 6.28125,0 c -0.61632,0 -0.90625,0.3215 -0.90625,0.7188 0,0.9838 1.5,0.6881 1.5,1.375 0,0.2933 -0.21134,0.4374 -0.59375,0.4374 -0.27474,0 -0.56746,-0.075 -0.8125,-0.25 l -0.15625,0.25 c 0.29331,0.2005 0.59221,0.3125 0.9375,0.3126 0.60518,0 0.96875,-0.2875 0.96875,-0.7813 0,-0.9468 -1.5,-0.6458 -1.5,-1.3437 0,-0.2228 0.18751,-0.4063 0.5625,-0.4063 0.27846,0 0.51238,0.083 0.75,0.25 l 0.125,-0.25 c -0.27474,-0.1894 -0.52971,-0.3125 -0.875,-0.3125 z m -50.03125,0.031 v 1.5938 c 0,0.7054 0.38245,1.2188 1.125,1.2188 0.74255,0 1.125,-0.5134 1.125,-1.2188 v -1.5938 h -0.3125 v 1.5938 c 0,0.5346 -0.29271,0.9062 -0.8125,0.9062 -0.51979,0 -0.78125,-0.3716 -0.78125,-0.9062 v -1.5938 z m 3.53125,0 v 2.7813 H 321.75 v -1.2813 h 1.34375 v -0.2812 H 321.75 v -0.9375 h 1.5 v -0.2813 z m 12.0625,0 -1.1875,2.7813 0.34375,0.031 0.25,-0.6563 h 1.375 l 0.25,0.6563 0.34375,-0.031 -1.1875,-2.7813 z m 2.40625,0 v 2.7813 h 0.3125 v -2.0313 h 0.0312 l 0.875,1.2188 h 0.125 l 0.90625,-1.2188 v 2.0313 h 0.34375 v -2.7813 h -0.1875 l -1.125,1.5626 -1.125,-1.5626 h -0.15625 z m 3.90625,0 v 2.7813 h 0.34375 v -0.9375 h 0.6875 c 0.5235,0 0.9375,-0.4289 0.9375,-0.9375 0,-0.5161 -0.41029,-0.9063 -0.9375,-0.9063 z m 3.125,0 v 1.5938 c 0,0.7054 0.38245,1.2188 1.125,1.2188 0.74255,0 1.125,-0.5134 1.125,-1.2188 v -1.5938 h -0.3125 v 1.5938 c 0,0.5346 -0.29271,0.9062 -0.8125,0.9062 -0.51979,0 -0.78125,-0.3716 -0.78125,-0.9062 v -1.5938 z m 8.1875,0 v 2.7813 h 0.34375 v -1.125 h 0.65625 l 0.8125,1.1563 0.375,-0.031 -0.84375,-1.1563 c 0.36385,-0.1113 0.6875,-0.3802 0.6875,-0.7812 0,-0.5421 -0.39605,-0.8438 -0.875,-0.8438 h -1.15625 z m 3.15625,0 v 1.5938 c 0,0.7054 0.38245,1.2188 1.125,1.2188 0.74255,0 1.125,-0.5134 1.125,-1.2188 v -1.5938 h -0.34375 v 1.5938 c 0,0.5346 -0.26146,0.9062 -0.78125,0.9062 -0.51979,0 -0.78125,-0.3716 -0.78125,-0.9062 v -1.5938 z m 10.40625,0 -1.21875,2.7813 0.34375,0.031 0.28125,-0.6563 h 1.34375 l 0.28125,0.6563 0.34375,-0.031 -1.21875,-2.7813 z m -24.53125,0.2813 h 0.65625 c 0.35643,0 0.65625,0.2686 0.65625,0.625 0,0.3453 -0.30354,0.6563 -0.65625,0.6563 H 340.125 Z m 11.3125,0 h 0.78125 c 0.31559,0 0.5625,0.2024 0.5625,0.5625 0,0.2413 -0.23578,0.5312 -0.5625,0.5312 h -0.78125 z m -17.875,0.2813 0.5625,1.3124 H 333 Z m 31.15625,0 h 0.0312 l 0.5625,1.3124 h -1.15625 l 0.5625,-1.3124 z"
           style="font-style:normal;font-variant:normal;font-weight:normal;font-stretch:normal;font-size:8.38834667px;line-height:125%;font-family:SkolaSans;-inkscape-font-specification:SkolaSans;letter-spacing:0px;word-spacing:0px;fill:#000000;fill-opacity:1;stroke:none" />
        <path
           inkscape:connector-curvature="0"
           id="path1581"
           d="m 328.96875,1006.3125 -0.90625,1.3437 h 0.5625 l 0.78125,-0.8437 0.75,0.8437 H 330.75 l -0.9375,-1.3437 z M 321,1008.0312 c -2.09793,0 -3.1875,1.5082 -3.1875,3.375 0,1.8669 1.08957,3.3751 3.1875,3.375 0.87118,0 1.55662,-0.2473 2.25,-0.6562 l -0.34375,-0.6562 c -0.58671,0.3733 -1.16842,0.5937 -1.90625,0.5937 -1.55567,0 -2.375,-1.1984 -2.375,-2.6563 0,-1.4667 0.81933,-2.6562 2.375,-2.6562 0.73783,0 1.31954,0.2204 1.90625,0.5938 l 0.34375,-0.6563 c -0.69338,-0.4089 -1.37882,-0.6562 -2.25,-0.6563 z m 21.90625,0 c -2.09793,0 -3.1875,1.5082 -3.1875,3.375 0,1.8669 1.08957,3.3751 3.1875,3.375 0.87118,0 1.55662,-0.2473 2.25,-0.6562 l -0.34375,-0.6562 c -0.58671,0.3733 -1.16842,0.5937 -1.90625,0.5937 -1.55567,0 -2.375,-1.1984 -2.375,-2.6563 0,-1.4667 0.81933,-2.6562 2.375,-2.6562 0.73783,0 1.31954,0.2204 1.90625,0.5938 l 0.34375,-0.6563 c -0.69338,-0.4089 -1.37882,-0.6562 -2.25,-0.6563 z m -18.28125,0.031 v 6.6563 h 0.8125 v -6.6563 z m 2.5,0 v 6.6563 h 4.4375 v -0.6876 h -3.65625 v -2.4374 h 3.28125 v -0.6563 h -3.28125 v -2.1563 h 3.65625 v -0.7187 z m 5.875,0 v 6.6563 h 0.8125 v -4.9376 h 0.0312 l 4.125,4.9376 h 0.34375 v -6.6563 h -0.8125 v 5.0313 h -0.0312 l -4.15625,-5.0313 z m 13.5625,0 v 6.6563 h 0.78125 v -6.6563 z m 4.625,0 -2.90625,6.6563 0.84375,0.062 0.65625,-1.5312 H 353 l 0.65625,1.5312 0.8125,-0.062 -2.90625,-6.6563 z m 6.625,0 v 6.6563 h 2.25 c 2.07126,0 3.15625,-1.4546 3.15625,-3.3126 0,-1.8579 -1.08499,-3.3437 -3.15625,-3.3437 z m 8.8125,0 -2.875,6.6563 0.8125,0.062 0.65625,-1.5312 h 3.21875 l 0.6875,1.5312 0.8125,-0.062 -2.90625,-6.6563 z m -8,0.7187 H 360 c 1.57345,0 2.40625,1.1138 2.40625,2.625 0,1.5113 -0.8328,2.625 -2.40625,2.625 h -1.375 z m -7.25,0.625 h 0.0312 l 1.34375,3.1876 h -2.71875 l 1.34375,-3.1876 z m 15.4375,0 h 0.0312 l 1.34375,3.1876 h -2.71875 l 1.34375,-3.1876 z"
           style="font-style:normal;font-variant:normal;font-weight:normal;font-stretch:normal;font-size:21.29725266px;line-height:125%;font-family:SkolaSans;-inkscape-font-specification:SkolaSans;letter-spacing:0px;word-spacing:0px;fill:#000000;fill-opacity:1;stroke:none" />
      </g>
      <path
         inkscape:connector-curvature="0"
         id="path1585"
         d="m 192.85807,240.34747 c -10.10343,0 -18.29502,8.19172 -18.29502,18.29512 0,10.10324 8.19159,18.29483 18.29502,18.29483 10.10333,1e-4 18.29492,-8.19159 18.29492,-18.29483 0,-10.1034 -8.19159,-18.29512 -18.29492,-18.29512 z m -10.60283,7.97802 h 2.3129 19.15259 v 2.31295 h -19.15259 v 13.33142 h 19.15259 v 2.31287 h -21.46549 v -2.31287 -13.33142 z m 4.36602,4.08009 h 2.31277 11.64219 v 2.31291 h -11.64219 v 5.11952 h 11.64219 v 2.3127 h -11.64219 -2.31277 v -7.43222 z m 3.19631,14.44888 h 6.36686 v 2.33875 h -6.36686 z m -2.07899,2.8326 h 10.4988 v 1.19524 h -10.4988 z"
         style="fill:#000000;fill-opacity:1;stroke:none;stroke-width:0.87107545" />
    </g>
  </g>
</svg>
