<?xml version="1.0" encoding="UTF-8" standalone="no"?>
<!-- Created with Inkscape (http://www.inkscape.org/) -->

<svg
   width="210mm"
   height="80mm"
   viewBox="0 0 210 80"
   version="1.1"
   id="svg948"
   inkscape:version="1.1.1 (3bf5ae0d25, 2021-09-20)"
   sodipodi:docname="es_russas.svg"
   xmlns:inkscape="http://www.inkscape.org/namespaces/inkscape"
   xmlns:sodipodi="http://sodipodi.sourceforge.net/DTD/sodipodi-0.dtd"
   xmlns="http://www.w3.org/2000/svg"
   xmlns:svg="http://www.w3.org/2000/svg">
  <sodipodi:namedview
     id="namedview950"
     pagecolor="#ffffff"
     bordercolor="#666666"
     borderopacity="1.0"
     inkscape:pageshadow="2"
     inkscape:pageopacity="0.0"
     inkscape:pagecheckerboard="0"
     inkscape:document-units="mm"
     showgrid="false"
     inkscape:zoom="0.21435469"
     inkscape:cx="345.22221"
     inkscape:cy="776.74997"
     inkscape:window-width="1366"
     inkscape:window-height="697"
     inkscape:window-x="-8"
     inkscape:window-y="-8"
     inkscape:window-maximized="1"
     inkscape:current-layer="layer1" />
  <defs
     id="defs945" />
  <g
     inkscape:label="Camada 1"
     inkscape:groupmode="layer"
     id="layer1">
    <g
       id="g837"
       transform="translate(-0.28418266,-86.154135)">
      <path
         inkscape:connector-curvature="0"
         id="path4541-9-1-6-4-6-5-3-9-2"
         d="m 38.985771,136.51869 c -0.191589,-0.52397 -0.856155,-1.23351 -1.433253,-1.53024 -1.410096,-0.72505 -3.18177,-0.0766 -3.856376,1.41141 -0.08917,0.19668 -0.17136,0.37001 -0.182651,0.38518 -0.04567,0.0614 -1.086967,-0.34276 -1.803566,-0.69993 l -0.763287,-0.38044 0.164593,-0.3724 c 0.13298,-0.30087 0.164603,-0.515 0.164649,-1.11488 0,-0.67088 -0.02268,-0.79261 -0.235749,-1.26231 -0.395318,-0.87148 -1.051107,-1.42835 -1.972355,-1.67486 -0.574486,-0.15372 -1.19661,-0.1092 -1.695591,0.12134 l -0.335416,0.15496 -0.301375,-0.6717 c -0.273796,-0.61023 -0.760337,-1.98637 -0.71583,-2.02467 0.01007,-0.009 0.212463,-0.1141 0.449755,-0.2343 0.536629,-0.27184 1.119381,-0.90297 1.385869,-1.5009 0.172536,-0.38713 0.200565,-0.55278 0.201732,-1.19209 0.0012,-0.67352 -0.02071,-0.79112 -0.236185,-1.26618 -0.282794,-0.62348 -0.760425,-1.14717 -1.308627,-1.43482 -0.21967,-0.11527 -0.411282,-0.22068 -0.425802,-0.23426 -0.05757,-0.0538 0.325806,-1.13336 0.670137,-1.88699 l 0.364242,-0.79722 0.356548,0.17006 c 0.285175,0.13602 0.499176,0.17045 1.069002,0.17197 0.654789,0.002 0.75252,-0.0187 1.207475,-0.25262 0.856586,-0.44044 1.368613,-1.09578 1.603108,-2.05179 0.147198,-0.60011 0.104548,-1.24982 -0.116261,-1.77119 l -0.148467,-0.35055 0.690561,-0.33477 c 0.673847,-0.32667 1.689811,-0.71262 1.73084,-0.6575 0.01129,0.0152 0.09348,0.18849 0.182651,0.38518 0.655395,1.44565 2.395641,2.11707 3.776217,1.45693 0.565408,-0.27037 1.197346,-0.90448 1.449277,-1.45428 0.11049,-0.24113 0.205882,-0.44702 0.211982,-0.45754 0.02812,-0.0485 1.357863,0.46542 1.934498,0.74765 l 0.643113,0.31477 -0.163991,0.37715 c -0.207836,0.47799 -0.222782,1.51901 -0.02953,2.05749 0.324249,0.90353 1.099824,1.6584 1.977755,1.92497 0.532873,0.1618 1.346031,0.11367 1.824703,-0.108 l 0.35044,-0.16228 0.296902,0.599 c 0.257424,0.51936 0.760707,1.86754 0.760707,2.03776 0,0.0322 -0.174569,0.14371 -0.387935,0.24778 -0.549129,0.26783 -1.069095,0.82709 -1.354895,1.45727 -0.218386,0.48154 -0.240024,0.59682 -0.238797,1.27201 0.0012,0.63931 0.0292,0.80496 0.201732,1.19209 0.266488,0.59793 0.849241,1.22906 1.38587,1.5009 0.237291,0.1202 0.439681,0.22564 0.449754,0.2343 0.04469,0.0384 -0.44259,1.41567 -0.718303,2.03018 l -0.303844,0.67721 -0.216316,-0.11683 c -0.118974,-0.0643 -0.437259,-0.15936 -0.707299,-0.21132 -1.685425,-0.32436 -3.346248,1.1537 -3.346248,2.978 0,0.37403 0.144044,1.0291 0.288126,1.31028 0.08221,0.16045 0.04877,0.18923 -0.607221,0.52254 -0.51827,0.26333 -1.90923,0.82449 -2.043682,0.82449 -0.0073,0 -0.07179,-0.16021 -0.143382,-0.35601 z m -0.788116,-3.3541 c 2.350616,-0.7989 3.892946,-2.40806 4.684091,-4.88705 0.202237,-0.63369 0.212013,-0.731 0.212013,-2.11021 0,-1.37922 -0.0098,-1.47652 -0.212013,-2.11021 -0.790548,-2.47713 -2.312393,-4.06663 -4.684091,-4.89232 -0.60672,-0.21123 -0.699884,-0.22144 -2.020391,-0.22144 -1.320512,0 -1.413676,0.0102 -2.020396,0.22144 -2.371693,0.82569 -3.893539,2.41519 -4.684086,4.89232 -0.202237,0.63369 -0.212013,0.73099 -0.212013,2.11021 0,1.37921 0.0098,1.47652 0.212013,2.11021 0.771939,2.41882 2.327371,4.07593 4.539569,4.83634 0.811458,0.27893 1.101274,0.31469 2.351987,0.29027 1.068891,-0.0209 1.265468,-0.0466 1.833317,-0.23956 z"
         style="fill:#4a4a48;fill-opacity:1;stroke-width:0.0764748" />
      <path
         id="path4474-6-7-5-5-2-3-0-9-9"
         d="m 44.127906,148.06444 c -0.0103,-0.009 -0.271267,-0.0383 -0.579937,-0.0648 -0.610865,-0.0525 -1.05489,-0.10946 -1.346929,-0.1729 -0.10289,-0.0224 -0.288093,-0.0588 -0.411564,-0.081 -1.116803,-0.20059 -2.725278,-0.80047 -4.190445,-1.56282 -0.699657,-0.36405 -1.33945,-0.70542 -1.421758,-0.7586 -2.482947,-1.60434 -4.942246,-3.91394 -6.922016,-6.50066 -0.2961,-0.38687 -0.593947,-0.77444 -0.661888,-0.86125 -0.06794,-0.0868 -0.319985,-0.43255 -0.560097,-0.7683 -0.434721,-0.60785 -0.417719,-0.65643 0.09984,-0.28526 0.379956,0.27249 2.160879,1.24165 2.880933,1.56777 0.205779,0.0932 0.508841,0.23097 0.673462,0.30615 0.918048,0.41925 2.947216,1.10551 3.836082,1.29736 0.09319,0.0201 0.446758,0.10471 0.785707,0.188 0.33895,0.0833 0.717289,0.16935 0.840761,0.19125 0.54358,0.0964 1.382511,0.21285 1.795905,0.24925 0.246939,0.0217 0.600505,0.0538 0.785708,0.0713 0.503769,0.0475 2.671841,0.0472 3.142834,-4.9e-4 0.226362,-0.0229 0.596768,-0.0628 0.823124,-0.0889 0.226362,-0.026 0.495744,-0.0569 0.598639,-0.0686 0.10289,-0.0117 0.405946,-0.0623 0.673462,-0.11253 0.267516,-0.0502 0.671596,-0.12282 0.897953,-0.16139 0.75225,-0.12819 2.7694,-0.75478 3.416047,-1.06113 0.129687,-0.0614 0.273258,-0.11171 0.319039,-0.11171 0.04578,0 0.141715,-0.0339 0.213181,-0.0754 0.07147,-0.0415 0.2983,-0.15004 0.504085,-0.24124 0.786082,-0.3484 2.476754,-1.26616 2.892482,-1.57016 0.109244,-0.0799 0.222407,-0.14524 0.251473,-0.14524 0.02907,0 0.269609,-0.15827 0.534545,-0.3517 0.264936,-0.19344 0.51376,-0.3517 0.552946,-0.3517 0.03918,0 0.07124,-0.0328 0.07124,-0.0729 0,-0.0401 0.06141,-0.0932 0.136468,-0.11812 0.07505,-0.0249 0.201333,-0.10667 0.280608,-0.18175 0.07928,-0.0751 0.239329,-0.20034 0.355669,-0.27838 0.116335,-0.078 0.284702,-0.20577 0.374148,-0.28386 0.08944,-0.0781 0.448846,-0.38247 0.79867,-0.6764 0.624958,-0.52509 0.952311,-0.81301 1.189728,-1.04643 0.389936,-0.30172 0.586772,-0.75212 0.283744,0.0808 -0.351112,0.96505 -0.448685,1.2097 -0.51194,1.28357 -0.03497,0.0408 -0.06358,0.11752 -0.06358,0.1704 0,0.0529 -0.09776,0.31842 -0.217247,0.59008 -0.119489,0.27165 -0.307947,0.72252 -0.418803,1.00193 -0.110851,0.27941 -0.29931,0.73028 -0.418799,1.00194 -0.119484,0.27166 -0.217247,0.50801 -0.217247,0.52524 0,0.0172 -0.08235,0.21933 -0.182989,0.44914 -0.100644,0.22981 -0.256711,0.62652 -0.346813,0.88157 -0.890432,2.52053 -1.977784,4.37896 -3.408952,5.82635 -0.722675,0.73087 -1.616052,1.34298 -2.646234,1.81312 -0.405808,0.18519 -1.40383,0.4312 -1.98298,0.48879 -0.48348,0.0481 -3.455788,0.10702 -3.498267,0.0694 z"
         style="fill:#4a4a48;fill-opacity:1;stroke-width:0.0764748"
         inkscape:connector-curvature="0" />
      <path
         id="path4474-3-0-9-3-4-2-5-4-6-7"
         d="m 57.97807,132.49497 c -0.013,0.004 -0.182165,0.2134 -0.375926,0.46575 -0.383452,0.49942 -0.677149,0.85189 -0.890904,1.06918 -0.07531,0.0766 -0.207855,0.21649 -0.294544,0.31096 -0.784105,0.85448 -2.16018,1.91113 -3.584989,2.75281 -0.680382,0.40192 -1.309277,0.76472 -1.397536,0.80621 -2.662449,1.25153 -5.871289,2.08794 -9.031695,2.3542 -0.472675,0.0398 -0.946879,0.0808 -1.053789,0.091 -0.106909,0.0102 -0.522285,0.0349 -0.923059,0.0549 -0.725592,0.0361 -0.754626,-0.006 -0.170489,-0.24605 0.428844,-0.17642 2.194433,-1.1757 2.856136,-1.6165 0.189107,-0.12598 0.468011,-0.31122 0.619785,-0.41165 0.846401,-0.56008 2.526431,-1.93255 3.176051,-2.59461 0.06811,-0.0694 0.333091,-0.32813 0.588847,-0.57493 0.255757,-0.24679 0.535759,-0.52613 0.622231,-0.62075 0.380687,-0.41658 0.942525,-1.07762 1.202732,-1.4151 0.155432,-0.20159 0.378723,-0.4897 0.496207,-0.64025 0.319567,-0.40951 1.5326,-2.28636 1.758419,-2.72068 0.108527,-0.20873 0.284064,-0.55174 0.390089,-0.76224 0.106021,-0.2105 0.232276,-0.46095 0.280572,-0.55656 0.04829,-0.0956 0.177695,-0.38628 0.287564,-0.64594 0.10987,-0.25965 0.278353,-0.65007 0.374407,-0.8676 0.31923,-0.72289 0.950788,-2.81959 1.069554,-3.55078 0.02382,-0.14664 0.06426,-0.29904 0.08989,-0.33867 0.02562,-0.0396 0.05237,-0.14166 0.05945,-0.22674 0.0071,-0.0851 0.04787,-0.34217 0.09065,-0.57133 0.163426,-0.87541 0.381243,-2.85245 0.372652,-3.38242 -0.0023,-0.13927 0.0092,-0.2738 0.02547,-0.29896 0.01627,-0.0252 0.02529,-0.32194 0.02004,-0.65951 -0.0052,-0.33758 0.0084,-0.64154 0.03034,-0.67545 0.02193,-0.0339 0.01384,-0.08 -0.01797,-0.10246 -0.03181,-0.0224 -0.03963,-0.10534 -0.01737,-0.18423 0.02226,-0.0789 0.02803,-0.23397 0.01282,-0.3446 -0.01521,-0.11064 -0.02506,-0.31928 -0.02188,-0.46365 0.0032,-0.14437 -0.004,-0.36159 -0.01588,-0.48271 -0.01191,-0.12112 -0.05232,-0.60255 -0.0898,-1.06985 -0.06695,-0.83481 -0.112236,-1.27928 -0.164598,-1.61542 -0.02122,-0.50637 -0.268456,-0.92879 0.222879,-0.20041 0.569298,0.84396 0.708822,1.06532 0.732044,1.16142 0.01283,0.0531 0.05767,0.12079 0.09963,0.15038 0.04196,0.0296 0.197957,0.2628 0.346661,0.51825 0.148684,0.25544 0.401,0.67087 0.560679,0.92318 0.15968,0.2523 0.411991,0.66774 0.560689,0.92318 0.148699,0.25545 0.281544,0.47234 0.295207,0.48198 0.01366,0.01 0.127964,0.19401 0.254001,0.40972 0.126038,0.21572 0.353492,0.5728 0.50546,0.79352 1.501774,2.18122 2.367979,4.16239 2.715635,6.21116 0.175551,1.03455 0.161342,2.1504 -0.04207,3.30523 -0.08013,0.4549 -0.443396,1.45647 -0.721781,1.99002 -0.232392,0.44541 -1.848861,3.05129 -1.902506,3.06699 z"
         style="fill:#54acd2;fill-opacity:1;stroke-width:0.0764748"
         inkscape:connector-curvature="0" />
      <path
         id="path4474-3-6-6-2-5-6-1-5-4-6-6"
         d="m 53.170318,111.4921 c -0.0039,0.0135 0.07376,0.27532 0.172675,0.58186 0.195753,0.60665 0.321457,1.05508 0.381322,1.36029 0.02109,0.10753 0.06239,0.29958 0.09178,0.42678 0.265858,1.15054 0.375338,2.93073 0.285231,4.63783 -0.04303,0.81518 -0.08983,1.56396 -0.103992,1.66397 -0.427367,3.01661 -1.484152,6.28981 -2.974453,9.21282 -0.222888,0.43717 -0.445693,0.87629 -0.495123,0.97583 -0.04943,0.0995 -0.253594,0.47816 -0.453696,0.84139 -0.362287,0.65762 -0.411722,0.66055 -0.290325,0.0172 0.08912,-0.47231 0.236018,-2.56412 0.237629,-3.38384 4.64e-4,-0.23427 0.0016,-0.57948 0.0025,-0.76714 0.0051,-1.0465 -0.195021,-3.26438 -0.378302,-4.19285 -0.01922,-0.0973 -0.08484,-0.46994 -0.145822,-0.828 -0.06099,-0.35807 -0.135129,-0.755 -0.16476,-0.88209 -0.130461,-0.55953 -0.360277,-1.41024 -0.491965,-1.82113 -0.07866,-0.24545 -0.190468,-0.59725 -0.248458,-0.78178 -0.157738,-0.50196 -1.016399,-2.58125 -1.244706,-3.01414 -0.109725,-0.20805 -0.291552,-0.54747 -0.404052,-0.75427 -0.112505,-0.2068 -0.246295,-0.45294 -0.297323,-0.54699 -0.05102,-0.0941 -0.215543,-0.36466 -0.365594,-0.60136 -0.150055,-0.23669 -0.373907,-0.59549 -0.497448,-0.79731 -0.410559,-0.67072 -1.760147,-2.35725 -2.285531,-2.85614 -0.105368,-0.10006 -0.20641,-0.21785 -0.224541,-0.26176 -0.01813,-0.0439 -0.08595,-0.12248 -0.150714,-0.1746 -0.06476,-0.0521 -0.250018,-0.22669 -0.411684,-0.38794 -0.617562,-0.61598 -2.093882,-1.87409 -2.525759,-2.15243 -0.113491,-0.0731 -0.215761,-0.1558 -0.22727,-0.18368 -0.01151,-0.0279 -0.245901,-0.19592 -0.520868,-0.37342 -0.274954,-0.17753 -0.512639,-0.35349 -0.528154,-0.39107 -0.01552,-0.0376 -0.05705,-0.0553 -0.09229,-0.0395 -0.03524,0.0159 -0.106298,-0.022 -0.157891,-0.0841 -0.05159,-0.0621 -0.173495,-0.15087 -0.270892,-0.19717 -0.0974,-0.0463 -0.270906,-0.15021 -0.385578,-0.23088 -0.114672,-0.0807 -0.293646,-0.19158 -0.397717,-0.24645 -0.104076,-0.0549 -0.513987,-0.27904 -0.910921,-0.49818 -0.709109,-0.39148 -1.091862,-0.59143 -1.391089,-0.72671 -0.419669,-0.25452 -0.89359,-0.26497 -0.04133,-0.30413 0.987491,-0.0454 1.241214,-0.0486 1.331211,-0.0172 0.04975,0.0174 0.128487,0.0144 0.174981,-0.006 0.04649,-0.0209 0.31866,-0.0323 0.604812,-0.0253 0.286138,0.007 0.75716,0.009 1.046702,0.005 0.289547,-0.004 0.760569,-0.002 1.046721,0.005 0.286148,0.007 0.53266,0.007 0.5478,4.8e-4 0.01514,-0.007 0.22544,-0.008 0.46734,-0.002 0.241895,0.006 0.652468,-0.002 0.912384,-0.0164 2.56858,-0.14401 4.633034,0.163 6.472238,0.96251 0.928714,0.40371 1.820614,1.01818 2.641858,1.82007 0.323504,0.31587 0.934957,1.17566 1.214908,1.70831 0.233707,0.44466 1.462439,3.27204 1.446165,3.32769 z"
         style="fill:#d5d9db;fill-opacity:1;stroke-width:0.0764748"
         inkscape:connector-curvature="0" />
      <path
         inkscape:connector-curvature="0"
         id="path4474-7-6-2-2-3-8-6-2-9-2"
         d="m 28.358615,104.24375 c 0.0103,0.009 0.271267,0.0383 0.579937,0.0648 0.61087,0.0525 1.05489,0.10946 1.346929,0.1729 0.10289,0.0224 0.288093,0.0588 0.41156,0.081 1.116807,0.20058 2.725282,0.80046 4.190449,1.56282 0.699653,0.36404 1.339445,0.70541 1.421758,0.7586 2.482947,1.60433 4.942251,3.91393 6.922021,6.50065 0.296091,0.38687 0.593942,0.77444 0.661879,0.86126 0.06795,0.0868 0.319989,0.43255 0.560101,0.76829 0.434721,0.60785 0.417719,0.65643 -0.09984,0.28526 -0.379956,-0.27249 -2.160879,-1.24164 -2.880932,-1.56777 -0.20578,-0.0932 -0.508841,-0.23096 -0.673467,-0.30614 -0.918044,-0.41926 -2.947216,-1.10552 -3.836078,-1.29736 -0.09319,-0.0201 -0.446758,-0.10472 -0.785707,-0.18801 -0.338945,-0.0833 -0.717293,-0.16935 -0.84076,-0.19125 -0.543577,-0.0964 -1.382512,-0.21285 -1.795906,-0.24925 -0.246939,-0.0217 -0.600505,-0.0538 -0.785707,-0.0712 -0.50377,-0.0475 -2.671841,-0.0473 -3.14284,4.8e-4 -0.226357,0.0229 -0.596762,0.0629 -0.823119,0.0889 -0.226362,0.026 -0.495749,0.0569 -0.598639,0.0686 -0.102889,0.0117 -0.405946,0.0623 -0.673462,0.11253 -0.267515,0.0502 -0.671596,0.12282 -0.897953,0.1614 -0.752246,0.12819 -2.769395,0.75477 -3.416046,1.06112 -0.129687,0.0614 -0.273254,0.11171 -0.319044,0.11171 -0.04578,0 -0.14171,0.0339 -0.213172,0.0754 -0.07147,0.0415 -0.298309,0.15004 -0.504089,0.24124 -0.786083,0.3484 -2.476755,1.26617 -2.892478,1.57016 -0.109245,0.0799 -0.222407,0.14524 -0.251473,0.14524 -0.02907,0 -0.269609,0.15827 -0.53455,0.3517 -0.264936,0.19344 -0.51376,0.35171 -0.552945,0.35171 -0.03918,0 -0.07124,0.0328 -0.07124,0.0729 0,0.0401 -0.06141,0.0932 -0.136467,0.11812 -0.07506,0.0249 -0.20133,0.10667 -0.280609,0.18175 -0.07927,0.0751 -0.239329,0.20035 -0.355669,0.27838 -0.116334,0.078 -0.284702,0.20577 -0.374143,0.28386 -0.08945,0.0781 -0.448851,0.38247 -0.79868,0.6764 -0.624953,0.52509 -0.952301,0.81302 -1.189727,1.04644 -0.389927,0.30171 -0.586768,0.75211 -0.283739,-0.0808 0.351116,-0.96505 0.448684,-1.2097 0.511939,-1.28357 0.03497,-0.0408 0.06358,-0.11752 0.06358,-0.1704 0,-0.0529 0.09777,-0.31842 0.217251,-0.59008 0.119489,-0.27164 0.307957,-0.72252 0.418799,-1.00193 0.110851,-0.2794 0.299319,-0.73028 0.418808,-1.00194 0.119484,-0.27166 0.217242,-0.50801 0.217242,-0.52523 0,-0.0172 0.08235,-0.21934 0.182989,-0.44915 0.100644,-0.22981 0.256711,-0.62652 0.346814,-0.88157 0.890431,-2.52053 1.977783,-4.37896 3.408947,-5.82635 0.722684,-0.73087 1.616061,-1.34298 2.646239,-1.81312 0.405807,-0.18519 1.403829,-0.43119 1.982979,-0.48878 0.48348,-0.0481 3.455788,-0.10703 3.498267,-0.0694 z"
         style="fill:#4a4a48;fill-opacity:1;stroke-width:0.0764748" />
      <path
         inkscape:connector-curvature="0"
         id="path4474-3-5-1-3-9-3-5-8-9-6-1"
         d="m 14.508456,119.81322 c 0.013,-0.004 0.182164,-0.21339 0.375921,-0.46575 0.383453,-0.49942 0.677154,-0.85189 0.890909,-1.06918 0.07531,-0.0766 0.207855,-0.21649 0.294535,-0.31096 0.78411,-0.85448 2.160184,-1.91113 3.584998,-2.75281 0.680377,-0.40192 1.309276,-0.76472 1.397536,-0.80621 2.662444,-1.25153 5.871289,-2.08794 9.03169,-2.35419 0.472675,-0.0398 0.946879,-0.0808 1.053789,-0.091 0.10691,-0.0102 0.522286,-0.0349 0.923059,-0.0549 0.725597,-0.0362 0.754631,0.006 0.170489,0.24604 -0.428839,0.17642 -2.194433,1.1757 -2.856131,1.6165 -0.189112,0.12598 -0.468016,0.31122 -0.61979,0.41166 -0.846397,0.56007 -2.52643,1.93254 -3.176055,2.59461 -0.0681,0.0694 -0.333086,0.32812 -0.588839,0.57492 -0.255761,0.2468 -0.535763,0.52614 -0.62223,0.62076 -0.380687,0.41657 -0.942529,1.07762 -1.202732,1.41509 -0.155437,0.20159 -0.378728,0.4897 -0.496212,0.64025 -0.319562,0.40951 -1.532595,2.28636 -1.758419,2.72068 -0.108526,0.20873 -0.284064,0.55174 -0.390089,0.76224 -0.106016,0.2105 -0.232276,0.46095 -0.280571,0.55656 -0.04829,0.0956 -0.1777,0.38628 -0.28756,0.64594 -0.109874,0.25965 -0.278353,0.65007 -0.374412,0.8676 -0.319229,0.72289 -0.950792,2.8196 -1.069554,3.55078 -0.02381,0.14664 -0.06426,0.29905 -0.08988,0.33868 -0.02562,0.0396 -0.05237,0.14166 -0.05945,0.22673 -0.0071,0.0851 -0.04787,0.34217 -0.09065,0.57133 -0.163426,0.87541 -0.381243,2.85246 -0.372661,3.38242 0.0022,0.13927 -0.0092,0.2738 -0.02546,0.29896 -0.01626,0.0252 -0.02528,0.32194 -0.02004,0.65952 0.0052,0.33757 -0.0084,0.64153 -0.03033,0.67544 -0.02193,0.0339 -0.01385,0.08 0.01796,0.10246 0.03181,0.0224 0.03963,0.10534 0.01738,0.18423 -0.02226,0.0789 -0.02803,0.23397 -0.01282,0.3446 0.01521,0.11064 0.02506,0.31928 0.02187,0.46365 -0.0032,0.14437 0.004,0.36159 0.01589,0.48271 0.01192,0.12113 0.05232,0.60256 0.0898,1.06985 0.06694,0.83481 0.112236,1.27929 0.164603,1.61542 0.02121,0.50637 0.268456,0.92879 -0.222879,0.20041 -0.569303,-0.84396 -0.708822,-1.06532 -0.732048,-1.16141 -0.01283,-0.0531 -0.05767,-0.12079 -0.09963,-0.15039 -0.04196,-0.0296 -0.197957,-0.2628 -0.346656,-0.51825 -0.148684,-0.25544 -0.401005,-0.67087 -0.560684,-0.92318 -0.159675,-0.25231 -0.411986,-0.66774 -0.560689,-0.92318 -0.148699,-0.25545 -0.281544,-0.47234 -0.295207,-0.48197 -0.01367,-0.01 -0.127968,-0.19401 -0.254001,-0.40973 -0.126037,-0.21572 -0.353487,-0.5728 -0.50546,-0.79352 -1.501774,-2.18121 -2.367974,-4.16239 -2.715635,-6.21116 -0.175547,-1.03454 -0.161338,-2.1504 0.04208,-3.30522 0.08013,-0.45491 0.443391,-1.45647 0.721781,-1.99003 0.232392,-0.4454 1.848861,-3.05128 1.902501,-3.06699 z"
         style="fill:#54acd2;fill-opacity:1;stroke-width:0.0764748" />
      <path
         inkscape:connector-curvature="0"
         id="path4474-3-6-3-8-7-1-8-6-9-8-0-4"
         d="m 19.316208,140.81609 c 0.004,-0.0135 -0.07376,-0.27532 -0.172675,-0.58186 -0.195758,-0.60664 -0.321462,-1.05507 -0.381327,-1.36028 -0.02109,-0.10754 -0.06238,-0.29959 -0.09177,-0.42678 -0.265858,-1.15054 -0.375338,-2.93074 -0.285236,-4.63784 0.04303,-0.81518 0.08983,-1.56396 0.103997,-1.66396 0.427367,-3.01662 1.484151,-6.28981 2.974449,-9.21283 0.222892,-0.43717 0.445697,-0.87629 0.495123,-0.97583 0.04943,-0.0995 0.253593,-0.47816 0.453695,-0.84139 0.362287,-0.65762 0.411727,-0.66055 0.29033,-0.0172 -0.08913,0.47231 -0.236018,2.56412 -0.237634,3.38385 -7.41e-4,0.23426 -0.0016,0.57947 -0.0025,0.76713 -0.0051,1.0465 0.195021,3.26438 0.378307,4.19285 0.01922,0.0973 0.08483,0.46994 0.145822,0.82801 0.06099,0.35806 0.135124,0.755 0.164756,0.88208 0.130465,0.55953 0.360277,1.41024 0.491969,1.82114 0.07866,0.24544 0.190464,0.59724 0.248453,0.78177 0.157734,0.50196 1.016404,2.58125 1.244706,3.01415 0.109721,0.20805 0.291553,0.54746 0.404057,0.75426 0.1125,0.2068 0.246295,0.45294 0.297319,0.547 0.05103,0.094 0.215538,0.36466 0.365593,0.60135 0.150056,0.2367 0.373912,0.59549 0.497453,0.79731 0.410559,0.67072 1.760147,2.35725 2.285531,2.85615 0.105368,0.10005 0.20641,0.21784 0.224541,0.26175 0.01812,0.0439 0.08595,0.12248 0.150704,0.1746 0.06477,0.0521 0.250028,0.22669 0.41169,0.38794 0.617557,0.61598 2.093886,1.87409 2.525764,2.15244 0.113486,0.0731 0.215755,0.1558 0.227269,0.18368 0.0115,0.0279 0.245896,0.19591 0.520864,0.37341 0.274954,0.17753 0.512643,0.35349 0.528154,0.39107 0.01552,0.0376 0.05705,0.0553 0.0923,0.0395 0.03524,-0.0159 0.106294,0.022 0.157887,0.0841 0.0516,0.0621 0.173499,0.15086 0.270892,0.19716 0.0974,0.0463 0.27091,0.15021 0.385578,0.23089 0.114672,0.0807 0.293646,0.19157 0.397721,0.24644 0.104071,0.0549 0.513982,0.27905 0.910921,0.49818 0.709105,0.39148 1.091858,0.59143 1.391084,0.72671 0.419669,0.25452 0.89359,0.26497 0.04133,0.30413 -0.987486,0.0454 -1.241209,0.0487 -1.33121,0.0172 -0.04974,-0.0174 -0.128488,-0.0145 -0.174977,0.006 -0.0465,0.0209 -0.318664,0.0323 -0.604812,0.0253 -0.286138,-0.007 -0.75716,-0.009 -1.046707,-0.005 -0.289542,0.004 -0.760564,0.002 -1.046721,-0.005 -0.286147,-0.007 -0.532655,-0.007 -0.547804,-3.9e-4 -0.01514,0.007 -0.225435,0.008 -0.467331,0.002 -0.241899,-0.006 -0.652473,0.002 -0.912388,0.0164 -2.568581,0.14401 -4.63303,-0.163 -6.472234,-0.96251 -0.928714,-0.40372 -1.820614,-1.01819 -2.641862,-1.82007 -0.3235,-0.31588 -0.934962,-1.17566 -1.214908,-1.70832 -0.233707,-0.44466 -1.46244,-3.27203 -1.446165,-3.32768 z"
         style="fill:#d5d9db;fill-opacity:1;stroke-width:0.0764748" />
      <path
         inkscape:connector-curvature="0"
         style="fill:#4a4a48;fill-opacity:1;stroke-width:0.107199"
         d="m 68.723853,142.63896 c -1.272717,-0.20868 -2.536189,-0.69255 -3.795641,-1.45358 l -0.74936,-0.45277 0.830797,-1.73284 0.830864,-1.73277 0.443057,0.28355 c 0.811598,0.51943 1.632067,0.92596 2.457807,1.21777 1.561968,0.55211 3.237667,0.32599 3.642413,-0.49136 0.518859,-1.04787 -0.06979,-1.63013 -2.792343,-2.76152 -3.383816,-1.40634 -4.818732,-2.80519 -5.146623,-5.01747 -0.317335,-2.14128 0.659633,-4.15894 2.458277,-5.07711 1.187887,-0.60641 2.082608,-0.79056 3.809774,-0.78433 1.278256,0.006 1.730915,0.0502 2.412676,0.24451 0.84749,0.24127 2.715696,1.14037 3.199392,1.53985 l 0.262283,0.21653 -0.786722,1.65885 c -0.43272,0.91244 -0.821739,1.68194 -0.864598,1.71012 -0.04276,0.0281 -0.27875,-0.0928 -0.524443,-0.26861 -1.461573,-1.04639 -3.337008,-1.59558 -4.550445,-1.33248 -1.09959,0.23841 -1.507603,1.01497 -0.917746,1.74705 0.274157,0.34027 1.424305,0.96542 3.657349,1.98772 3.298739,1.51035 4.593931,3.44509 4.149337,6.19808 -0.449181,2.7812 -2.521303,4.25369 -6.142001,4.36481 -0.692316,0.0215 -1.540223,-0.008 -1.884104,-0.064 z m 17.232446,0.006 c -1.090019,-0.18102 -1.91186,-0.44533 -2.812813,-0.90445 -0.710991,-0.36237 -1.074139,-0.64411 -1.792098,-1.39069 -0.748408,-0.77821 -0.983254,-1.11192 -1.390886,-1.9767 -0.789898,-1.67521 -0.945082,-2.44903 -0.945082,-4.71031 0,-2.26129 0.155184,-3.0351 0.945082,-4.71033 0.407632,-0.86476 0.642478,-1.19852 1.390886,-1.97669 1.60092,-1.66464 3.357121,-2.33873 6.093022,-2.33873 2.735809,0 4.492024,0.67409 6.092931,2.33873 0.748416,0.77817 0.983239,1.11193 1.390996,1.97669 0.789797,1.67523 0.945086,2.44904 0.945086,4.71033 0,2.26128 -0.155289,3.0351 -0.945086,4.71031 -0.407757,0.86478 -0.64258,1.19849 -1.390996,1.9767 -1.048374,1.09016 -2.105358,1.70406 -3.575425,2.07669 -1.019243,0.25835 -3.086818,0.37113 -4.005617,0.21845 z m 2.793025,-3.90482 c 1.757729,-0.56197 2.887453,-2.54837 2.887453,-5.07733 0,-2.85347 -1.415969,-4.93511 -3.565764,-5.24214 -2.794294,-0.39909 -4.818941,1.80338 -4.818941,5.24214 0,3.76112 2.472142,6.0445 5.497252,5.07733 z m 62.568416,3.91264 -1.32195,-0.0617 3.73462,-8.95834 3.73474,-8.95828 1.40192,0.0303 1.40203,0.0303 3.7162,8.91458 c 2.04387,4.90302 3.70243,8.92746 3.6857,8.94318 -0.0169,0.0154 -0.99034,0.0463 -2.16317,0.0683 l -2.13266,0.0397 -0.59122,-1.45148 -0.59117,-1.45155 h -3.31347 -3.31347 l -0.57813,1.45155 -0.57808,1.45148 -0.88496,0.007 c -0.48673,0.006 -1.47989,-0.0209 -2.20693,-0.0546 z m 9.66156,-6.32823 c 0,-0.0911 -2.00624,-5.54107 -2.06742,-5.61635 -0.0227,-0.0281 -0.0833,0.0182 -0.13391,0.10362 -0.13153,0.22221 -1.99469,5.33553 -1.99469,5.47421 0,0.0771 0.69681,0.11548 2.09798,0.11548 1.1539,0 2.09804,-0.0347 2.09804,-0.077 z m 18.1506,6.08306 c -0.11744,-0.20032 -1.00394,-1.75609 -1.97014,-3.45719 l -1.75678,-3.09286 -0.86542,-0.006 h -0.86539 v 3.39598 3.39604 h -2.15044 -2.15049 v -8.98301 -8.98297 l 4.37964,0.006 c 4.89706,0 5.30782,0.0463 6.59763,0.70898 0.87588,0.45013 1.75372,1.36561 2.17821,2.27171 0.82942,1.77042 0.71799,4.12746 -0.26636,5.63385 -0.41451,0.6344 -1.32859,1.45899 -2.02623,1.82791 l -0.58816,0.31101 0.23651,0.40102 c 0.13016,0.22054 1.12123,1.82812 2.20222,3.57242 1.08117,1.74424 1.95541,3.1798 1.94286,3.19017 -0.0132,0.0105 -1.07162,0.0535 -2.35357,0.0959 l -2.33069,0.0772 z m -1.41908,-10.23346 c 1.23212,-0.67205 1.45128,-2.48034 0.41562,-3.42995 -0.51396,-0.47128 -0.94688,-0.55756 -2.80211,-0.55821 h -1.65216 v 2.14524 2.14526 l 1.80951,-0.0364 c 1.58989,-0.032 1.8604,-0.0643 2.22914,-0.2653 z m -79.042159,1.48869 v -8.98325 h 6.031809 6.03169 v 1.75284 1.75278 h -3.88126 -3.88131 v 2.08143 2.08141 h 3.3568 3.35682 v 1.698 1.698 h -3.35682 -3.3568 v 3.45082 3.45079 h -2.15043 -2.150499 z m 18.672169,1.75273 v -7.23018 h -2.30773 -2.30784 v -1.75279 -1.75278 h 6.76611 6.76602 v 1.75278 1.75279 h -2.30785 -2.30778 v 7.23018 7.23025 h -2.15039 -2.15054 z m 12.70845,-1.66784 -2.82676,-8.9036 0.95982,-0.0679 c 0.52789,-0.0375 1.51989,-0.0866 2.20454,-0.10953 l 1.24467,-0.0419 1.38757,5.94412 c 0.7632,3.26925 1.41719,5.9751 1.4535,6.01297 0.0851,0.0889 -0.0364,0.4508 2.0756,-6.17839 l 1.82355,-5.72392 h 0.75216 0.7521 l 1.01334,3.25906 c 2.18966,7.042 2.71358,8.68178 2.77386,8.68178 0.0348,0 0.69933,-2.66643 1.47752,-5.92527 0.77807,-3.25891 1.44071,-5.96949 1.47237,-6.02351 0.0496,-0.0845 4.17869,0.0841 4.27666,0.17458 0.0185,0.0171 -1.23259,4.02807 -2.77989,8.91357 l -2.81317,8.88282 h -1.62594 -1.62598 l -1.41386,-4.16919 c -1.40128,-4.13204 -1.52601,-4.47181 -1.60529,-4.37188 -0.0227,0.0287 -0.68164,1.94952 -1.46473,4.26924 l -1.42395,4.21765 -1.63046,0.0303 -1.63042,0.0303 -2.82681,-8.90361 z m 56.10597,-0.0849 v -8.98325 h 6.34644 6.34642 v 1.75284 1.75278 h -4.19599 -4.196 v 1.75279 1.75278 h 3.72396 3.72391 v 1.69799 1.698 h -3.72391 -3.72396 v 2.02668 2.02664 h 4.196 4.19599 v 1.75278 1.75279 h -6.34642 -6.34644 z M 92.636966,120.4519 c -1.642297,-0.38151 -2.874888,-1.35281 -3.55896,-2.80446 -1.467326,-3.11387 -0.468604,-6.93149 2.167019,-8.28342 1.344493,-0.6897 3.252607,-0.8491 4.85356,-0.40549 0.736074,0.20397 2.045628,0.81168 2.045628,0.94933 0,0.0946 -0.911518,2.17546 -0.987894,2.25517 -0.02164,0.0232 -0.292515,-0.10567 -0.601255,-0.28576 -0.854135,-0.49842 -1.676551,-0.70788 -2.546109,-0.64851 -1.194215,0.0814 -1.997368,0.65562 -2.494316,1.78327 -0.335013,0.76023 -0.344507,2.48982 -0.01794,3.23728 0.303663,0.69432 0.79993,1.24985 1.380539,1.54536 0.624694,0.31784 1.952662,0.35278 2.565477,0.0675 l 0.393391,-0.18313 v -0.82721 -0.82723 H 94.94438 94.052782 v -1.15024 -1.15029 h 2.152176 2.152292 l -0.02851,2.75524 -0.0285,2.75523 -0.618887,0.35787 c -1.546752,0.89425 -3.478991,1.22343 -5.045649,0.85946 z m 42.031364,0.0922 c -0.48,-0.0204 -0.8576,-0.0767 -0.8392,-0.12518 0.0185,-0.0485 1.11922,-2.68381 2.4462,-5.85626 l 2.41266,-5.76807 0.93178,0.0276 0.93173,0.0276 2.43664,5.80611 2.43668,5.8061 -1.16546,0.0827 c -1.72632,0.12249 -1.60735,0.17491 -2.05195,-0.90433 l -0.38346,-0.93119 h -2.19125 -2.19124 l -0.37328,0.95693 -0.37328,0.95693 -0.57691,-0.0204 c -0.3173,-0.0115 -0.96971,-0.0375 -1.44966,-0.0577 z m 5.70212,-5.9498 c -0.36035,-0.96745 -0.69472,-1.76855 -0.74313,-1.78019 -0.0486,-0.0116 -0.31475,0.59511 -0.59212,1.3482 -0.27744,0.75314 -0.57481,1.55423 -0.6609,1.78017 l -0.15661,0.41084 h 1.40399 1.40402 z m 11.31836,3.79408 -1.24214,-2.25418 h -0.55571 -0.55559 v 2.19101 2.19095 h -1.41613 -1.41616 v -5.86817 -5.86823 l 3.12075,0.0347 3.12076,0.0347 0.65539,0.31607 c 0.75307,0.36325 1.40637,1.04093 1.73595,1.80085 0.32409,0.7473 0.31817,2.16636 -0.0121,2.93311 -0.27073,0.62807 -0.90698,1.32834 -1.55141,1.70758 l -0.43129,0.25375 1.44479,2.30036 c 0.79464,1.26528 1.43712,2.3066 1.42783,2.31409 -0.009,0.008 -0.70682,0.0485 -1.54982,0.0906 l -1.53282,0.077 z m 0.4542,-4.92972 c 0.36237,-0.34688 0.39182,-0.42068 0.39182,-0.98382 0,-0.54141 -0.038,-0.64852 -0.34268,-0.96696 l -0.34266,-0.35812 -1.25704,-0.0364 -1.25708,-0.0364 v 1.37856 1.3785 h 1.20783 1.20796 z m 10.21888,7.08544 c -0.47996,-0.0204 -0.85761,-0.0767 -0.83919,-0.12518 0.0185,-0.0485 1.11927,-2.68381 2.44618,-5.85626 l 2.41271,-5.76807 0.93179,0.0276 0.93173,0.0276 2.43659,5.80611 2.43672,5.8061 -1.16551,0.0827 c -1.72627,0.12249 -1.60729,0.17491 -2.05188,-0.90433 l -0.38353,-0.93119 h -2.19125 -2.19123 l -0.37323,0.95693 -0.37329,0.95693 -0.57692,-0.0204 c -0.31738,-0.0115 -0.96967,-0.0375 -1.44969,-0.0577 z m 5.70217,-5.9498 c -0.36035,-0.96745 -0.69478,-1.76855 -0.74313,-1.78019 -0.048,-0.0116 -0.31474,0.59511 -0.59212,1.3482 -0.27743,0.75314 -0.57481,1.55423 -0.66091,1.78017 l -0.15664,0.41084 h 1.40398 1.40409 z m -101.704522,0.061 v -5.86089 h 4.195891 4.196053 v 1.15029 1.15024 h -2.779885 -2.77977 v 1.0955 1.09551 h 2.468728 2.468826 l -0.03008,1.12284 -0.03009,1.1229 -2.438907,0.0292 -2.438902,0.0292 v 1.31253 1.31256 h 2.779875 2.779789 v 1.15029 1.15025 h -4.195997 -4.196007 z m 10.175234,0 v -5.86089 h 0.813004 l 0.812972,0.006 2.727371,3.36604 2.727412,3.36595 0.02745,-3.36738 0.02744,-3.36732 h 1.4147 1.414588 v 5.86532 5.8653 l -0.861685,-0.032 -0.861694,-0.032 -2.678681,-3.28459 -2.678662,-3.28452 -0.02744,3.31191 -0.02745,3.31199 h -1.414626 -1.414643 v -5.86091 z m 23.812298,0 v -5.86089 h 4.196 4.196 v 1.15029 1.15024 h -2.77988 -2.77978 v 1.0955 1.09551 h 2.46877 2.46883 l -0.0301,1.12284 -0.0301,1.1229 -2.4389,0.0292 -2.43891,0.0292 v 1.31253 1.31256 h 2.77988 2.77977 v 1.15029 1.15025 h -4.19598 -4.19602 z m 10.17533,0 v -5.86089 h 0.81297 l 0.81291,0.006 2.72746,3.36604 2.72736,3.36595 0.0275,-3.36738 0.0274,-3.36732 h 1.4147 1.4146 v 5.86532 5.8653 l -0.86165,-0.032 -0.86168,-0.032 -2.67868,-3.28459 -2.6787,-3.28452 -0.0275,3.31191 -0.0275,3.31199 h -1.41469 -1.41459 v -5.86091 z m 12.16832,0 v -5.86089 h 1.41617 1.41613 v 2.24578 2.24576 h 2.15049 2.15044 v -2.24576 -2.24578 h 1.41618 1.41612 v 5.86089 5.86084 h -1.41612 -1.41618 v -2.46486 -2.46485 h -2.15044 -2.15049 v 2.46485 2.46486 h -1.41613 -1.41617 z m 34.82684,0 v -5.86089 h 1.41612 1.41617 v 5.86089 5.86084 h -1.41617 -1.41612 z m 20.87511,0 v -5.86089 h 2.28156 c 2.62069,0 3.37839,0.0984 4.32121,0.55591 1.33061,0.6457 2.15387,1.63989 2.63863,3.18679 0.36161,1.15405 0.36161,3.08063 0,4.23467 -0.48476,1.5469 -1.30802,2.54115 -2.63863,3.1868 -0.94282,0.45751 -1.70052,0.55496 -4.32121,0.55591 h -2.28156 v -5.86084 z m 5.18375,3.23614 c 1.04768,-0.52967 1.59674,-1.80687 1.50035,-3.49037 -0.0673,-1.17399 -0.19809,-1.63608 -0.63133,-2.22925 -0.50636,-0.69328 -1.13326,-0.983 -2.27423,-1.05092 l -0.94623,-0.0563 v 3.59073 3.59074 l 0.9352,-0.0557 c 0.6674,-0.0397 1.07287,-0.12535 1.41624,-0.29892 z m 6.2503,-3.23614 v -5.86089 h 4.19601 4.19606 v 1.15029 1.15024 h -2.77988 -2.77988 v 1.0955 1.09551 h 2.46883 2.46882 l -0.0301,1.12284 -0.0301,1.1229 -2.43902,0.0292 -2.43889,0.0292 v 1.31253 1.31256 h 2.77987 2.77978 v 1.15029 1.15025 h -4.1959 -4.19599 z"
         id="path5738-7-5-2-6-2-2-1-2-5" />
    </g>
  </g>
</svg>
